<svg width="48" height="48" viewBox="0 0 48 48" fill="none" xmlns="http://www.w3.org/2000/svg">
<path d="M24 48C37.25 48 48 37.25 48 24C48 10.75 37.25 0 24 0C10.75 0 0 10.75 0 24C0 37.25 10.75 48 24 48Z" fill="#FF9B70"/>
<path d="M22.063 25.886L21.765 30.074C22.191 30.074 22.376 29.891 22.597 29.6712L24.594 27.7625L28.733 30.7932C29.492 31.2162 30.027 30.9935 30.231 30.095L32.948 17.366L32.949 17.3653C33.19 16.2433 32.543 15.8046 31.804 16.0798L15.836 22.193C14.746 22.616 14.762 23.2235 15.65 23.4988L19.733 24.7685L29.215 18.8353C29.661 18.5398 30.067 18.7033 29.733 18.9988L22.063 25.886Z" fill="#F9F9F9"/>
</svg>
